<svg xmlns="http://www.w3.org/2000/svg" viewBox="0 0 32 32" fill="none">
  <rect width="32" height="32" rx="6" fill="#95BF47"/>
  <path d="M21.5 11.5C21.5 11.5 20 10 20 9C20 8 20.5 7.5 21 7.5C21.5 7.5 22 8 22 9C22 10 21 11 21 11.5" stroke="white" stroke-width="1.5" stroke-linecap="round"/>
  <path d="M21 13C21 13 21.5 14 21.5 15C21.5 16 21 17 21 17" stroke="white" stroke-width="1.5" stroke-linecap="round"/>
  <path d="M21 17L19.5 23M21 17L22.5 23" stroke="white" stroke-width="1.5" stroke-linecap="round"/>
  <path d="M10 11C10 11 10 10 10.5 9.5C11 9 12 9 12 9.5C12 10 11.5 11 11.5 11.5" stroke="white" stroke-width="1.5" stroke-linecap="round"/>
  <path d="M11.5 13C11.5 13 12 14 12 15C12 16 11.5 17 11.5 17" stroke="white" stroke-width="1.5" stroke-linecap="round"/>
  <path d="M11.5 17L10 23M11.5 17L13 23" stroke="white" stroke-width="1.5" stroke-linecap="round"/>
</svg>
